<svg xmlns="http://www.w3.org/2000/svg" xmlns:xlink="http://www.w3.org/1999/xlink" width="1080" zoomAndPan="magnify" viewBox="0 0 810 1012.49997" height="1350" preserveAspectRatio="xMidYMid meet" version="1.0"><defs><filter x="0%" y="0%" width="100%" height="100%" id="d07ff878b9"><feColorMatrix values="0 0 0 0 1 0 0 0 0 1 0 0 0 0 1 0 0 0 1 0" color-interpolation-filters="sRGB"/></filter><g/><clipPath id="6c0dc4549c"><path d="M 0.925781 0.773438 L 514 0.773438 L 514 513 L 0.925781 513 Z M 0.925781 0.773438 " clip-rule="nonzero"/></clipPath><mask id="5723703d96"><g filter="url(#d07ff878b9)"><rect x="-326.2" width="1166.4" fill="#000000" y="-434.749993" height="1457.999957" fill-opacity="0.98"/></g></mask><clipPath id="a7b4911dec"><path d="M 29.457031 29.324219 L 484.542969 29.324219 L 484.542969 484.414062 L 29.457031 484.414062 Z M 29.457031 29.324219 " clip-rule="nonzero"/></clipPath><clipPath id="da336083f9"><rect x="0" width="514" y="0" height="513"/></clipPath><clipPath id="74242a58cf"><path d="M 26 489 L 528.1875 489 L 528.1875 552.503906 L 26 552.503906 Z M 26 489 " clip-rule="nonzero"/></clipPath><clipPath id="396356871d"><path d="M 170 0.171875 L 217 0.171875 L 217 46 L 170 46 Z M 170 0.171875 " clip-rule="nonzero"/></clipPath><clipPath id="02591a737e"><rect x="0" width="503" y="0" height="64"/></clipPath><clipPath id="4d1031be5d"><rect x="0" width="188" y="0" height="243"/></clipPath><clipPath id="3f8bc30ca0"><rect x="0" width="188" y="0" height="243"/></clipPath><clipPath id="e8a2719302"><rect x="0" width="529" y="0" height="553"/></clipPath></defs><g transform="matrix(1, 0, 0, 1, 148, 212)"><g clip-path="url(#e8a2719302)"><g clip-path="url(#6c0dc4549c)"><g mask="url(#5723703d96)"><g transform="matrix(1, 0, 0, 1, 0.000000000000028422, 0)"><g clip-path="url(#da336083f9)"><g clip-path="url(#a7b4911dec)"><path stroke-linecap="butt" transform="matrix(1.404594, 0, 0, 1.404594, 29.455741, 29.325878)" fill="none" stroke-linejoin="miter" d="M 0.00091867 -0.00118118 L 323.999111 -0.00118118 L 323.999111 323.999792 L 0.00091867 323.999792 Z M 0.00091867 -0.00118118 " stroke="#ffffff" stroke-width="9.606573" stroke-opacity="1" stroke-miterlimit="4"/></g></g></g></g></g><path stroke-linecap="butt" transform="matrix(0, -1.404594, 1.404594, 0, 254.180526, 415.634772)" fill="none" stroke-linejoin="miter" d="M -0.00138589 1.99898 L 233.373425 1.99898 " stroke="#ffffff" stroke-width="4" stroke-opacity="1" stroke-miterlimit="4"/><g clip-path="url(#74242a58cf)"><g transform="matrix(1, 0, 0, 1, 26, 489)"><g clip-path="url(#02591a737e)"><g fill="#ffffff" fill-opacity="1"><g transform="translate(0.698641, 45.311125)"><g><path d="M 36.8125 -31.578125 C 36.8125 -28.972656 35.914062 -26.726562 34.125 -24.84375 C 32.34375 -22.957031 29.628906 -21.554688 25.984375 -20.640625 L 35.875 -8.390625 C 37.070312 -6.898438 38.082031 -5.707031 38.90625 -4.8125 C 39.738281 -3.925781 40.765625 -3.117188 41.984375 -2.390625 C 43.210938 -1.671875 44.570312 -1.25 46.0625 -1.125 L 46.0625 0 L 34.9375 0 L 18.84375 -20.015625 L 14.734375 -20.015625 L 14.734375 -6.15625 C 14.734375 -4.332031 15.195312 -3.035156 16.125 -2.265625 C 17.0625 -1.503906 18.523438 -1.125 20.515625 -1.125 L 20.765625 -1.125 L 20.765625 0 L 2.109375 0 L 2.109375 -1.125 C 4.097656 -1.125 5.578125 -1.472656 6.546875 -2.171875 C 7.523438 -2.878906 8.015625 -4.144531 8.015625 -5.96875 L 8.015625 -36.875 C 8.015625 -38.53125 7.523438 -39.726562 6.546875 -40.46875 C 5.578125 -41.21875 4.097656 -41.59375 2.109375 -41.59375 L 2.109375 -42.71875 L 22.078125 -42.71875 C 26.128906 -42.71875 29.597656 -41.800781 32.484375 -39.96875 C 35.367188 -38.144531 36.8125 -35.347656 36.8125 -31.578125 Z M 14.734375 -39.421875 L 14.734375 -22.140625 L 16.28125 -22.140625 C 20.46875 -22.140625 23.640625 -22.957031 25.796875 -24.59375 C 27.953125 -26.226562 29.03125 -28.492188 29.03125 -31.390625 C 29.03125 -33.921875 28.210938 -36.078125 26.578125 -37.859375 C 24.941406 -39.640625 22.628906 -40.53125 19.640625 -40.53125 C 18.023438 -40.53125 16.390625 -40.160156 14.734375 -39.421875 Z M 14.734375 -39.421875 "/></g></g></g><g fill="#ffffff" fill-opacity="1"><g transform="translate(88.36451, 45.311125)"><g><path d="M 36.625 -33.265625 L 35.5625 -33.265625 C 35.144531 -35.628906 34.375 -37.378906 33.25 -38.515625 C 32.132812 -39.648438 30.582031 -40.21875 28.59375 -40.21875 L 15.109375 -40.21875 L 15.109375 -23.75 L 26.171875 -23.75 C 28.160156 -23.75 29.566406 -24.242188 30.390625 -25.234375 C 31.222656 -26.234375 31.660156 -27.8125 31.703125 -29.96875 L 32.828125 -29.96875 L 32.828125 -14.921875 L 31.703125 -14.921875 C 31.703125 -17.078125 31.285156 -18.671875 30.453125 -19.703125 C 29.628906 -20.742188 28.160156 -21.265625 26.046875 -21.265625 L 15.109375 -21.265625 L 15.109375 -5.65625 C 15.109375 -3.539062 15.9375 -2.484375 17.59375 -2.484375 L 28.53125 -2.484375 C 30.8125 -2.484375 32.820312 -3.175781 34.5625 -4.5625 C 36.300781 -5.957031 37.710938 -7.976562 38.796875 -10.625 L 40.09375 -10.625 L 36.625 0 L 2.234375 0 L 2.234375 -1.125 C 4.390625 -1.125 5.953125 -1.484375 6.921875 -2.203125 C 7.898438 -2.929688 8.390625 -4.289062 8.390625 -6.28125 L 8.390625 -36.875 C 8.390625 -38.53125 7.898438 -39.726562 6.921875 -40.46875 C 5.953125 -41.21875 4.390625 -41.59375 2.234375 -41.59375 L 2.234375 -42.71875 L 36.125 -42.71875 Z M 36.625 -33.265625 "/></g></g></g><g clip-path="url(#396356871d)"><g fill="#ffffff" fill-opacity="1"><g transform="translate(169.564457, 45.311125)"><g><path d="M 7.15625 -8.265625 L 23.0625 -44.578125 L 24.1875 -44.578125 L 40.96875 -5.90625 C 41.59375 -4.5 42.179688 -3.453125 42.734375 -2.765625 C 43.296875 -2.078125 43.890625 -1.628906 44.515625 -1.421875 C 45.140625 -1.222656 45.988281 -1.125 47.0625 -1.125 L 47.0625 0 L 29.53125 0 L 29.53125 -1.125 C 31.019531 -1.125 32.140625 -1.390625 32.890625 -1.921875 C 33.640625 -2.460938 34.015625 -3.191406 34.015625 -4.109375 C 34.015625 -4.890625 33.742188 -5.863281 33.203125 -7.03125 L 29.96875 -14.359375 L 12.75 -14.359375 L 9.203125 -6.21875 C 8.785156 -5.382812 8.578125 -4.640625 8.578125 -3.984375 C 8.578125 -2.078125 10.113281 -1.125 13.1875 -1.125 L 13.1875 0 L 0.875 0 L 0.875 -1.125 C 1.90625 -1.25 2.742188 -1.546875 3.390625 -2.015625 C 4.035156 -2.492188 4.613281 -3.1875 5.125 -4.09375 C 5.644531 -5.007812 6.320312 -6.398438 7.15625 -8.265625 Z M 28.96875 -16.71875 L 21.390625 -34.0625 L 13.796875 -16.71875 Z M 28.96875 -16.71875 "/></g></g></g></g><g fill="#ffffff" fill-opacity="1"><g transform="translate(257.230327, 45.311125)"><g><path d="M 21.765625 -41.59375 C 19.609375 -41.59375 18.0625 -41.25 17.125 -40.5625 C 16.195312 -39.882812 15.734375 -38.507812 15.734375 -36.4375 L 15.734375 -5.21875 C 15.734375 -4.351562 15.90625 -3.734375 16.25 -3.359375 C 16.601562 -2.984375 17.195312 -2.796875 18.03125 -2.796875 L 27.296875 -2.796875 C 29.453125 -2.796875 31.234375 -3.070312 32.640625 -3.625 C 34.046875 -4.1875 35.253906 -5.097656 36.265625 -6.359375 C 37.285156 -7.628906 38.273438 -9.425781 39.234375 -11.75 L 40.28125 -11.375 L 36.6875 0 L 2.609375 0 L 2.609375 -1.125 L 3.046875 -1.125 C 5.160156 -1.125 6.679688 -1.492188 7.609375 -2.234375 C 8.546875 -2.984375 9.015625 -4.332031 9.015625 -6.28125 L 9.015625 -36.5 C 9.015625 -38.40625 8.523438 -39.726562 7.546875 -40.46875 C 6.578125 -41.21875 5.054688 -41.59375 2.984375 -41.59375 L 2.609375 -41.59375 L 2.609375 -42.71875 L 21.765625 -42.71875 Z M 21.765625 -41.59375 "/></g></g></g><g fill="#ffffff" fill-opacity="1"><g transform="translate(332.15066, 45.311125)"><g><path d="M 39.921875 -33.015625 L 38.734375 -33.015625 C 38.148438 -37.648438 35.640625 -39.96875 31.203125 -39.96875 L 24.0625 -39.96875 L 24.0625 -5.84375 C 24.0625 -3.976562 24.597656 -2.722656 25.671875 -2.078125 C 26.753906 -1.441406 28.289062 -1.125 30.28125 -1.125 L 30.28125 0 L 11.125 0 L 11.125 -1.125 C 13.320312 -1.125 14.90625 -1.492188 15.875 -2.234375 C 16.851562 -2.984375 17.34375 -4.332031 17.34375 -6.28125 L 17.34375 -39.96875 L 9.765625 -39.96875 C 7.816406 -39.96875 6.1875 -39.398438 4.875 -38.265625 C 3.570312 -37.128906 2.835938 -35.378906 2.671875 -33.015625 L 1.546875 -33.015625 L 1.859375 -42.71875 L 39.609375 -42.71875 Z M 39.921875 -33.015625 "/></g></g></g><g fill="#ffffff" fill-opacity="1"><g transform="translate(413.350606, 45.311125)"><g><path d="M 19.703125 -41.59375 C 17.835938 -41.59375 16.5625 -41.445312 15.875 -41.15625 C 15.195312 -40.863281 14.859375 -40.367188 14.859375 -39.671875 C 14.859375 -38.835938 15.457031 -37.488281 16.65625 -35.625 L 26.234375 -21.203125 L 33.953125 -33.265625 C 36.140625 -36.660156 37.234375 -38.835938 37.234375 -39.796875 C 37.234375 -40.492188 36.867188 -40.96875 36.140625 -41.21875 C 35.421875 -41.46875 34.296875 -41.59375 32.765625 -41.59375 L 32.765625 -42.71875 L 47.1875 -42.71875 L 47.1875 -41.59375 C 45.113281 -41.59375 43.382812 -41 42 -39.8125 C 40.613281 -38.632812 38.945312 -36.492188 37 -33.390625 L 27.421875 -18.34375 L 27.421875 -6.21875 C 27.421875 -4.769531 27.65625 -3.691406 28.125 -2.984375 C 28.601562 -2.273438 29.285156 -1.796875 30.171875 -1.546875 C 31.066406 -1.304688 32.328125 -1.164062 33.953125 -1.125 L 33.953125 0 L 14.109375 0 L 14.109375 -1.125 L 14.671875 -1.125 C 16.910156 -1.125 18.472656 -1.515625 19.359375 -2.296875 C 20.253906 -3.085938 20.703125 -4.601562 20.703125 -6.84375 L 20.703125 -17.90625 L 7.640625 -37.296875 C 6.773438 -38.585938 6.050781 -39.519531 5.46875 -40.09375 C 4.882812 -40.675781 4.25 -41.070312 3.5625 -41.28125 C 2.882812 -41.488281 1.945312 -41.59375 0.75 -41.59375 L 0.75 -42.71875 L 19.703125 -42.71875 Z M 19.703125 -41.59375 "/></g></g></g></g></g></g><g transform="matrix(1, 0, 0, 1, 58, 80)"><g clip-path="url(#4d1031be5d)"><g fill="#ffffff" fill-opacity="1"><g transform="translate(0.328463, 173.481984)"><g><path d="M 153.640625 -58.21875 L 153.640625 -140.59375 C 153.640625 -148.164062 151.664062 -153.5625 147.71875 -156.78125 C 143.78125 -160 137.460938 -161.609375 128.765625 -161.609375 L 128.765625 -165.96875 L 182.875 -165.96875 L 182.875 -161.609375 C 175.789062 -161.609375 170.554688 -159.675781 167.171875 -155.8125 C 163.785156 -151.945312 162.09375 -146.875 162.09375 -140.59375 L 162.09375 2.421875 L 157.984375 2.421875 L 35.515625 -135.765625 L 35.515625 -24.40625 C 35.515625 -16.832031 37.523438 -11.59375 41.546875 -8.6875 C 45.578125 -5.789062 51.78125 -4.34375 60.15625 -4.34375 L 61.84375 -4.34375 L 61.84375 0 L 3.625 0 L 3.625 -4.34375 C 19.25 -4.34375 27.0625 -10.785156 27.0625 -23.671875 L 27.0625 -145.4375 C 26.09375 -146.394531 24.117188 -148.523438 21.140625 -151.828125 C 18.160156 -155.128906 15.300781 -157.546875 12.5625 -159.078125 C 9.820312 -160.609375 6.84375 -161.453125 3.625 -161.609375 L 3.625 -165.96875 L 58.703125 -165.96875 Z M 153.640625 -58.21875 "/></g></g></g></g></g><g transform="matrix(1, 0, 0, 1, 269, 250)"><g clip-path="url(#3f8bc30ca0)"><g fill="#ffffff" fill-opacity="1"><g transform="translate(0.641347, 173.488233)"><g><path d="M 98.078125 -169.59375 C 106.453125 -169.59375 113.617188 -168.828125 119.578125 -167.296875 C 125.535156 -165.765625 131.578125 -163.707031 137.703125 -161.125 C 142.367188 -159.195312 145.671875 -158.234375 147.609375 -158.234375 C 150.660156 -158.234375 152.953125 -159.117188 154.484375 -160.890625 C 156.015625 -162.660156 157.425781 -165.398438 158.71875 -169.109375 L 163.546875 -169.109375 L 163.546875 -112.8125 L 158.71875 -112.8125 C 153.5625 -127.789062 145.910156 -139.425781 135.765625 -147.71875 C 125.617188 -156.019531 114.265625 -160.171875 101.703125 -160.171875 C 86.566406 -160.171875 74.769531 -153.003906 66.3125 -138.671875 C 57.851562 -124.335938 53.625 -104.609375 53.625 -79.484375 C 53.625 -48.722656 59.503906 -28.023438 71.265625 -17.390625 C 75.773438 -13.203125 80.726562 -10.101562 86.125 -8.09375 C 91.519531 -6.082031 96.710938 -5.078125 101.703125 -5.078125 C 109.273438 -5.078125 117.003906 -6.847656 124.890625 -10.390625 L 124.890625 -50.96875 C 124.890625 -60.957031 118.53125 -65.953125 105.8125 -65.953125 L 104.125 -65.953125 L 104.125 -70.296875 L 182.875 -70.296875 L 182.875 -65.953125 C 169.988281 -65.953125 163.546875 -61.039062 163.546875 -51.21875 L 163.546875 -10.390625 C 155.492188 -6.035156 145.867188 -2.648438 134.671875 -0.234375 C 123.484375 2.171875 112.171875 3.375 100.734375 3.375 C 82.210938 3.375 66.144531 -0.242188 52.53125 -7.484375 C 38.925781 -14.734375 28.539062 -24.640625 21.375 -37.203125 C 14.207031 -49.765625 10.625 -63.773438 10.625 -79.234375 C 10.625 -95.503906 14.53125 -110.5625 22.34375 -124.40625 C 30.15625 -138.257812 40.742188 -149.253906 54.109375 -157.390625 C 67.484375 -165.523438 82.140625 -169.59375 98.078125 -169.59375 Z M 98.078125 -169.59375 "/></g></g></g></g></g></g></g></svg>